<svg xmlns="http://www.w3.org/2000/svg" width="192" height="192" viewBox="0 0 24 24">
  <defs>
    <linearGradient id="grad1" x1="0%" y1="0%" x2="100%" y2="100%">
      <stop offset="0%" style="stop-color:#F0F8FF;stop-opacity:1" />
      <stop offset="100%" style="stop-color:#E0F0FF;stop-opacity:1" />
    </linearGradient>
  </defs>
  <rect width="24" height="24" fill="url(#grad1)"/>
  <path d="M17.8 19.2 16 11l3.5-3.5C21 6 21.5 4 21 3c-1-.5-3 0-4.5 1.5L13 8 4.8 6.2 5 5c-1.5-1.5-3-2-4.5-1.5s-1.5 3 0 4.5L1 8.2l8 1.8L7.5 13c-1.5 1.5-2 3-1.5 4.5s3 1.5 4.5 0L11 16l8-1.8Z" fill="none" stroke="#1E4E8C" stroke-width="1.5" stroke-linecap="round" stroke-linejoin="round"/>
</svg>
